<svg width="193" height="104" viewBox="0 0 193 104" fill="none" xmlns="http://www.w3.org/2000/svg">
<g filter="url(#filter0_d_1_539)">
<rect x="30.029" y="15" width="132.879" height="44.0001" rx="8" fill="#2E3A59"/>
<path d="M77.226 26.4678C77.226 27.3322 76.991 28.0217 76.5211 28.5259C75.9948 29.133 75.2993 29.4418 74.4535 29.4418C73.6358 29.4418 72.9498 29.133 72.3765 28.5156C71.8032 27.8982 71.5212 27.1264 71.5212 26.2209C71.5212 25.305 71.8032 24.5436 72.3765 23.9261C72.9498 23.3087 73.6358 23 74.4535 23C74.8576 23 75.2429 23.0823 75.6095 23.2573C75.976 23.4322 76.2673 23.6586 76.4929 23.9467L75.9948 24.4921C75.6189 24.0085 75.1114 23.7615 74.4535 23.7615C73.8614 23.7615 73.3445 23.9879 72.9122 24.4509C72.4799 24.9037 72.2637 25.5006 72.2637 26.2312C72.2637 26.9618 72.4799 27.5586 72.9122 28.0114C73.3445 28.4642 73.8614 28.7009 74.4535 28.7009C75.0832 28.7009 75.6095 28.4745 76.0324 28.0114C76.3049 27.713 76.4647 27.2911 76.5023 26.756H74.4535V26.0151H77.1884C77.2072 26.1694 77.226 26.3238 77.226 26.4678Z" fill="white" stroke="white" stroke-width="0.2" stroke-miterlimit="10"/>
<path d="M81.5586 23.8953H78.9928V25.8504H81.3048V26.5913H78.9928V28.5465H81.5586V29.308H78.2692V23.1338H81.5586V23.8953Z" fill="white" stroke="white" stroke-width="0.2" stroke-miterlimit="10"/>
<path d="M84.6129 29.308H83.8892V23.8953H82.3103V23.1338H86.1824V23.8953H84.6035V29.308H84.6129Z" fill="white" stroke="white" stroke-width="0.2" stroke-miterlimit="10"/>
<path d="M88.9925 29.308V23.1338H89.7162V29.308H88.9925Z" fill="white" stroke="white" stroke-width="0.2" stroke-miterlimit="10"/>
<path d="M92.9303 29.308H92.2067V23.8953H90.6278V23.1338H94.4998V23.8953H92.9209V29.308H92.9303Z" fill="white" stroke="white" stroke-width="0.2" stroke-miterlimit="10"/>
<path d="M101.84 28.5053C101.286 29.133 100.599 29.4418 99.7724 29.4418C98.9454 29.4418 98.2593 29.133 97.7048 28.5053C97.1503 27.8776 96.8778 27.1161 96.8778 26.2209C96.8778 25.3256 97.1503 24.5538 97.7048 23.9364C98.2593 23.3087 98.9454 23 99.7724 23C100.59 23 101.276 23.3087 101.84 23.9364C102.395 24.5641 102.676 25.3256 102.676 26.2209C102.667 27.1264 102.395 27.8879 101.84 28.5053ZM98.2405 27.9908C98.654 28.4539 99.1709 28.6803 99.7724 28.6803C100.374 28.6803 100.891 28.4539 101.304 27.9908C101.718 27.5278 101.934 26.9412 101.934 26.2209C101.934 25.5006 101.727 24.914 101.304 24.4509C100.891 23.9879 100.374 23.7615 99.7724 23.7615C99.1709 23.7615 98.654 23.9879 98.2405 24.4509C97.827 24.914 97.6108 25.5006 97.6108 26.2209C97.6108 26.9412 97.827 27.5278 98.2405 27.9908Z" fill="white" stroke="white" stroke-width="0.2" stroke-miterlimit="10"/>
<path d="M103.691 29.308V23.1338H104.575L107.319 27.9394H107.347L107.319 26.7457V23.1338H108.043V29.308H107.291L104.424 24.276H104.396L104.424 25.4697V29.308H103.691Z" fill="white" stroke="white" stroke-width="0.2" stroke-miterlimit="10"/>
<path d="M96.699 38.3121C94.4904 38.3121 92.6859 40.154 92.6859 42.6855C92.6859 45.2066 94.4904 47.0589 96.699 47.0589C98.9076 47.0589 100.712 45.2066 100.712 42.6855C100.712 40.154 98.9076 38.3121 96.699 38.3121ZM96.699 45.3404C95.4866 45.3404 94.4434 44.2496 94.4434 42.6855C94.4434 41.111 95.4866 40.0305 96.699 40.0305C97.9113 40.0305 98.9546 41.111 98.9546 42.6855C98.9546 44.2496 97.902 45.3404 96.699 45.3404ZM87.9398 38.3121C85.7312 38.3121 83.9268 40.154 83.9268 42.6855C83.9268 45.2066 85.7312 47.0589 87.9398 47.0589C90.1484 47.0589 91.9529 45.2066 91.9529 42.6855C91.9529 40.154 90.1484 38.3121 87.9398 38.3121ZM87.9398 45.3404C86.7274 45.3404 85.6842 44.2496 85.6842 42.6855C85.6842 41.111 86.7274 40.0305 87.9398 40.0305C89.1522 40.0305 90.1954 41.111 90.1954 42.6855C90.1954 44.2496 89.1522 45.3404 87.9398 45.3404ZM77.5266 39.6601V41.5124H81.5866C81.4644 42.5517 81.1449 43.3235 80.6656 43.8483C80.0735 44.4966 79.1524 45.2066 77.5359 45.2066C75.036 45.2066 73.0812 43.0045 73.0812 40.2672C73.0812 37.53 75.036 35.3279 77.5359 35.3279C78.8799 35.3279 79.8667 35.9041 80.5904 36.6553L81.784 35.3484C80.7689 34.2885 79.425 33.4756 77.5266 33.4756C74.1056 33.4756 71.2297 36.5215 71.2297 40.2775C71.2297 44.0232 74.1056 47.0794 77.5266 47.0794C79.378 47.0794 80.7689 46.4209 81.8591 45.1757C82.9775 43.9512 83.3253 42.2224 83.3253 40.8332C83.3253 40.401 83.2971 39.9997 83.2313 39.6704H77.5266V39.6601ZM120.11 41.1007C119.781 40.1232 118.766 38.3121 116.689 38.3121C114.631 38.3121 112.92 40.082 112.92 42.6855C112.92 45.1346 114.612 47.0589 116.886 47.0589C118.719 47.0589 119.781 45.8343 120.213 45.1243L118.851 44.1261C118.4 44.8567 117.779 45.3404 116.886 45.3404C115.994 45.3404 115.354 44.8876 114.95 44.0129L120.298 41.5947L120.11 41.1007ZM114.659 42.562C114.612 40.8744 115.853 40.01 116.745 40.01C117.441 40.01 118.033 40.3907 118.23 40.9361L114.659 42.562ZM110.317 46.8016H112.075V33.9387H110.317V46.8016ZM107.441 39.2896H107.375C106.981 38.7751 106.229 38.3121 105.27 38.3121C103.268 38.3121 101.436 40.2364 101.436 42.706C101.436 45.1551 103.268 47.0691 105.27 47.0691C106.219 47.0691 106.981 46.6061 107.375 46.071H107.432V46.6987C107.432 48.376 106.614 49.2713 105.298 49.2713C104.227 49.2713 103.56 48.4275 103.287 47.7174L101.755 48.4172C102.197 49.58 103.362 51.0001 105.298 51.0001C107.357 51.0001 109.095 49.6726 109.095 46.4414V38.5796H107.432V39.2896H107.441ZM105.421 45.3404C104.208 45.3404 103.193 44.229 103.193 42.706C103.193 41.1625 104.208 40.0408 105.421 40.0408C106.614 40.0408 107.554 41.1728 107.554 42.706C107.563 44.229 106.624 45.3404 105.421 45.3404ZM128.343 33.9387H124.142V46.8016H125.899V41.924H128.352C130.298 41.924 132.206 40.3804 132.206 37.9313C132.206 35.4822 130.279 33.9387 128.343 33.9387ZM128.38 40.1334H125.89V35.7189H128.38C129.696 35.7189 130.439 36.9126 130.439 37.921C130.439 38.9295 129.696 40.1334 128.38 40.1334ZM139.226 38.2915C137.957 38.2915 136.642 38.9089 136.096 40.2569L137.657 40.967C137.985 40.2569 138.606 40.0203 139.254 40.0203C140.156 40.0203 141.087 40.6171 141.096 41.677V41.8108C140.777 41.6153 140.1 41.3168 139.264 41.3168C137.581 41.3168 135.88 42.3253 135.88 44.2084C135.88 45.9269 137.252 47.0383 138.794 47.0383C139.969 47.0383 140.626 46.462 141.031 45.7828H141.087V46.781H142.779V41.8519C142.788 39.5675 141.228 38.2915 139.226 38.2915ZM139.01 45.3404C138.437 45.3404 137.638 45.0214 137.638 44.2496C137.638 43.2617 138.634 42.881 139.499 42.881C140.269 42.881 140.636 43.0662 141.096 43.3132C140.965 44.4966 140.025 45.3404 139.01 45.3404ZM148.953 38.5693L146.942 44.1467H146.886L144.799 38.5693H142.91L146.04 46.3694L144.254 50.7016H146.087L150.908 38.5693H148.953ZM133.164 46.8016H134.922V33.9387H133.164V46.8016Z" fill="white"/>
<path d="M42.4706 23.6892C42.1981 24.0082 42.0383 24.5022 42.0383 25.1299V47.8921C42.0383 48.5301 42.1981 49.0241 42.4706 49.3328L42.5364 49.4048L54.1809 36.6654V36.511V36.3566L42.5364 23.6172L42.4706 23.6892Z" fill="url(#paint0_linear_1_539)"/>
<path d="M58.0624 40.9155L54.1809 36.6656V36.5112V36.3569L58.0624 32.1069L58.147 32.1584L62.7427 35.0191C64.0585 35.832 64.0585 37.1698 62.7427 37.993L58.147 40.8537L58.0624 40.9155Z" fill="url(#paint1_linear_1_539)"/>
<path d="M58.1472 40.8538L54.1812 36.5112L42.471 49.333C42.9033 49.8372 43.6175 49.899 44.4258 49.3948L58.1472 40.8538Z" fill="url(#paint2_linear_1_539)"/>
<path d="M58.1473 32.1685L44.4165 23.6275C43.6082 23.1233 42.894 23.185 42.4617 23.6893L54.1813 36.511L58.1473 32.1685Z" fill="url(#paint3_linear_1_539)"/>
<path opacity="0.2" d="M58.0631 40.7612L44.4168 49.2508C43.6555 49.7241 42.9695 49.6933 42.5372 49.2611L42.4714 49.3331L42.5372 49.4051C42.9789 49.8373 43.6555 49.8682 44.4168 49.3948L58.1476 40.8538L58.0631 40.7612Z" fill="#2E3A59"/>
<path opacity="0.12" d="M42.4711 49.1892C42.1985 48.8702 42.0388 48.3762 42.0388 47.7485V47.9029C42.0388 48.5409 42.1985 49.0348 42.4711 49.3435L42.5369 49.2715L42.4711 49.1892Z" fill="#2E3A59"/>
<path opacity="0.12" d="M62.7428 37.849L58.053 40.7611L58.1376 40.8538L62.7334 37.993C63.3912 37.5814 63.7202 37.0463 63.7202 36.5112C63.6732 36.9949 63.3443 37.4785 62.7428 37.849Z" fill="#2E3A59"/>
<path opacity="0.25" d="M44.4162 23.7719L62.7428 35.1736C63.3349 35.544 63.6732 36.0174 63.7296 36.5113C63.7296 35.9762 63.4007 35.4309 62.7428 35.0295L44.4162 23.6278C43.1004 22.8149 42.029 23.494 42.029 25.1405V25.2949C42.029 23.6381 43.1098 22.9589 44.4162 23.7719Z" fill="white"/>
</g>
<defs>
<filter id="filter0_d_1_539" x="0.0290432" y="0" width="192.879" height="104" filterUnits="userSpaceOnUse" color-interpolation-filters="sRGB">
<feFlood flood-opacity="0" result="BackgroundImageFix"/>
<feColorMatrix in="SourceAlpha" type="matrix" values="0 0 0 0 0 0 0 0 0 0 0 0 0 0 0 0 0 0 127 0" result="hardAlpha"/>
<feOffset dy="15"/>
<feGaussianBlur stdDeviation="15"/>
<feComposite in2="hardAlpha" operator="out"/>
<feColorMatrix type="matrix" values="0 0 0 0 0.862745 0 0 0 0 0.909647 0 0 0 0 0.952941 0 0 0 0.25 0"/>
<feBlend mode="normal" in2="BackgroundImageFix" result="effect1_dropShadow_1_539"/>
<feBlend mode="normal" in="SourceGraphic" in2="effect1_dropShadow_1_539" result="shape"/>
</filter>
<linearGradient id="paint0_linear_1_539" x1="53.1468" y1="24.8929" x2="35.9478" y2="40.6008" gradientUnits="userSpaceOnUse">
<stop stop-color="#00A0FF"/>
<stop offset="0.00657445" stop-color="#00A1FF"/>
<stop offset="0.2601" stop-color="#00BEFF"/>
<stop offset="0.5122" stop-color="#00D2FF"/>
<stop offset="0.7604" stop-color="#00DFFF"/>
<stop offset="1" stop-color="#00E3FF"/>
</linearGradient>
<linearGradient id="paint1_linear_1_539" x1="64.4573" y1="36.5126" x2="41.7165" y2="36.5126" gradientUnits="userSpaceOnUse">
<stop stop-color="#FFE000"/>
<stop offset="0.4087" stop-color="#FFBD00"/>
<stop offset="0.7754" stop-color="#FFA500"/>
<stop offset="1" stop-color="#FF9C00"/>
</linearGradient>
<linearGradient id="paint2_linear_1_539" x1="55.9922" y1="38.874" x2="32.6691" y2="60.1752" gradientUnits="userSpaceOnUse">
<stop stop-color="#FF3A44"/>
<stop offset="1" stop-color="#C31162"/>
</linearGradient>
<linearGradient id="paint3_linear_1_539" x1="39.5175" y1="16.1117" x2="49.9323" y2="25.6235" gradientUnits="userSpaceOnUse">
<stop stop-color="#32A071"/>
<stop offset="0.0685" stop-color="#2DA771"/>
<stop offset="0.4762" stop-color="#15CF74"/>
<stop offset="0.8009" stop-color="#06E775"/>
<stop offset="1" stop-color="#00F076"/>
</linearGradient>
</defs>
</svg>
