<svg width="200" height="104" viewBox="0 0 200 104" fill="none" xmlns="http://www.w3.org/2000/svg">
<g filter="url(#filter0_d_1_513)">
<rect x="30.0001" y="15" width="139.029" height="44.0001" rx="8" fill="#2E3A59"/>
<path d="M59.104 36.2584C59.1164 35.3256 59.3727 34.411 59.8489 33.5997C60.3252 32.7884 61.006 32.1067 61.8279 31.6182C61.3057 30.8971 60.6169 30.3038 59.8161 29.8852C59.0152 29.4666 58.1245 29.2343 57.2146 29.2068C55.2736 29.0098 53.3919 30.3298 52.4028 30.3298C51.3945 30.3298 49.8717 29.2263 48.2318 29.259C47.1711 29.2921 46.1373 29.5903 45.2312 30.1246C44.3252 30.6589 43.5777 31.4109 43.0616 32.3076C40.8261 36.0497 42.4936 41.5493 44.635 44.5742C45.7064 46.0554 46.9585 47.7099 48.5969 47.6512C50.2002 47.5869 50.799 46.6627 52.7343 46.6627C54.6516 46.6627 55.2134 47.6512 56.8851 47.6139C58.6054 47.5869 59.6894 46.1261 60.7232 44.6309C61.493 43.5755 62.0853 42.4091 62.4783 41.1748C61.4788 40.7661 60.6258 40.0819 60.0258 39.2076C59.4257 38.3334 59.1052 37.3077 59.104 36.2584Z" fill="white"/>
<path d="M55.9466 27.2174C56.8846 26.1287 57.3467 24.7293 57.2348 23.3164C55.8017 23.4619 54.4779 24.1242 53.5272 25.1711C53.0624 25.6826 52.7064 26.2777 52.4795 26.9222C52.2527 27.5668 52.1595 28.2483 52.2052 28.9278C52.922 28.9349 53.6312 28.7847 54.2792 28.4884C54.9273 28.1922 55.4974 27.7576 55.9466 27.2174Z" fill="white"/>
<path d="M79.3707 43.9014H73.8994L72.5855 47.6525H70.2681L75.4504 33.7744H77.8581L83.0404 47.6525H80.6835L79.3707 43.9014ZM74.4661 42.1705H78.803L76.665 36.0827H76.6052L74.4661 42.1705Z" fill="white"/>
<path d="M94.2323 42.5942C94.2323 45.7384 92.4917 47.7586 89.865 47.7586C89.1997 47.7922 88.5379 47.644 87.9556 47.331C87.3733 47.0179 86.8939 46.5526 86.5724 45.9883H86.5227V51H84.3746V37.5345H86.4538V39.2174H86.4933C86.8297 38.6559 87.3171 38.193 87.9039 37.878C88.4906 37.563 89.1548 37.4077 89.8255 37.4286C92.4815 37.4286 94.2323 39.4586 94.2323 42.5942ZM92.0244 42.5942C92.0244 40.5456 90.9295 39.1989 89.2589 39.1989C87.6176 39.1989 86.5137 40.574 86.5137 42.5942C86.5137 44.6329 87.6176 45.9982 89.2589 45.9982C90.9295 45.9982 92.0244 44.6612 92.0244 42.5942Z" fill="white"/>
<path d="M105.751 42.5941C105.751 45.7384 104.01 47.7586 101.383 47.7586C100.718 47.7922 100.056 47.644 99.474 47.3309C98.8917 47.0179 98.4123 46.5526 98.0908 45.9883H98.0411V51H95.893V37.5345H97.9722V39.2174H98.0118C98.3481 38.6559 98.8355 38.193 99.4223 37.878C100.009 37.563 100.673 37.4077 101.344 37.4286C104 37.4286 105.751 39.4586 105.751 42.5941ZM103.543 42.5941C103.543 40.5456 102.448 39.1988 100.777 39.1988C99.1361 39.1988 98.0321 40.574 98.0321 42.5941C98.0321 44.6328 99.1361 45.9982 100.777 45.9982C102.448 45.9982 103.543 44.6612 103.543 42.5941H103.543Z" fill="white"/>
<path d="M113.363 43.7857C113.522 45.1619 114.905 46.0655 116.795 46.0655C118.605 46.0655 119.908 45.1619 119.908 43.9209C119.908 42.8437 119.122 42.1988 117.262 41.7567L115.402 41.3234C112.766 40.7079 111.542 39.5161 111.542 37.5822C111.542 35.1877 113.701 33.543 116.765 33.543C119.798 33.543 121.877 35.1877 121.947 37.5822H119.779C119.649 36.1972 118.465 35.3612 116.735 35.3612C115.004 35.3612 113.82 36.207 113.82 37.4381C113.82 38.4193 114.576 38.9966 116.427 39.4386L118.008 39.814C120.953 40.4874 122.177 41.6312 122.177 43.6611C122.177 46.2575 120.038 47.8837 116.635 47.8837C113.452 47.8837 111.303 46.2957 111.164 43.7856L113.363 43.7857Z" fill="white"/>
<path d="M126.813 35.1396V37.5341H128.803V39.1789H126.813V44.7569C126.813 45.6235 127.211 46.0273 128.086 46.0273C128.322 46.0233 128.558 46.0073 128.793 45.9792V47.6141C128.399 47.6852 128 47.7174 127.599 47.7102C125.481 47.7102 124.654 46.9407 124.654 44.9784V39.1789H123.133V37.5341H124.654V35.1396H126.813Z" fill="white"/>
<path d="M129.956 42.5937C129.956 39.4102 131.895 37.4097 134.919 37.4097C137.953 37.4097 139.883 39.4101 139.883 42.5937C139.883 45.786 137.963 47.7778 134.919 47.7778C131.876 47.7778 129.956 45.786 129.956 42.5937ZM137.695 42.5937C137.695 40.4099 136.659 39.121 134.919 39.121C133.178 39.121 132.144 40.4197 132.144 42.5937C132.144 44.7863 133.178 46.0654 134.919 46.0654C136.659 46.0654 137.695 44.7863 137.695 42.5937H137.695Z" fill="white"/>
<path d="M141.653 37.5344H143.702V39.2566H143.752C143.89 38.7187 144.216 38.2434 144.675 37.9105C145.133 37.5775 145.696 37.4074 146.269 37.4285C146.517 37.4277 146.763 37.4537 147.005 37.506V39.4487C146.693 39.3563 146.366 39.3139 146.04 39.3232C145.728 39.3109 145.417 39.3641 145.128 39.4791C144.839 39.5941 144.579 39.7681 144.367 39.9893C144.154 40.2105 143.994 40.4735 143.896 40.7603C143.798 41.0472 143.766 41.351 143.801 41.6511V47.6526H141.653L141.653 37.5344Z" fill="white"/>
<path d="M156.909 44.6805C156.62 46.5173 154.77 47.7778 152.403 47.7778C149.359 47.7778 147.469 45.8057 147.469 42.6418C147.469 39.468 149.369 37.4097 152.313 37.4097C155.208 37.4097 157.029 39.3327 157.029 42.4006V43.1121H149.638V43.2376C149.604 43.61 149.652 43.9852 149.779 44.3381C149.907 44.6911 150.11 45.0138 150.376 45.2849C150.643 45.556 150.965 45.7692 151.324 45.9103C151.682 46.0515 152.067 46.1174 152.453 46.1036C152.961 46.1496 153.47 46.0359 153.905 45.7795C154.341 45.5231 154.679 45.1376 154.87 44.6805L156.909 44.6805ZM149.648 41.6606H154.88C154.899 41.3258 154.847 40.9907 154.726 40.6764C154.605 40.3622 154.418 40.0755 154.177 39.8343C153.936 39.5932 153.646 39.4028 153.325 39.2752C153.004 39.1475 152.66 39.0854 152.313 39.0926C151.963 39.0906 151.616 39.1555 151.293 39.2838C150.969 39.412 150.675 39.601 150.427 39.8397C150.179 40.0785 149.983 40.3623 149.849 40.6748C149.715 40.9874 149.647 41.3224 149.648 41.6606V41.6606Z" fill="white"/>
<path d="M74.1967 23.3289C74.6471 23.2976 75.099 23.3634 75.5198 23.5215C75.9407 23.6795 76.32 23.9259 76.6305 24.2429C76.9409 24.5599 77.1748 24.9395 77.3151 25.3544C77.4554 25.7693 77.4988 26.2092 77.442 26.6423C77.442 28.7727 76.2511 29.9973 74.1967 29.9973H71.7055V23.3289H74.1967ZM72.7767 29.0542H74.0771C74.3989 29.0728 74.7209 29.0218 75.0197 28.9049C75.3186 28.788 75.5867 28.6081 75.8046 28.3783C76.0224 28.1486 76.1846 27.8748 76.2792 27.5768C76.3738 27.2789 76.3986 26.9642 76.3516 26.6559C76.3951 26.3487 76.3679 26.0361 76.2719 25.7403C76.1758 25.4445 76.0132 25.1729 75.7958 24.945C75.5785 24.7171 75.3116 24.5385 75.0145 24.422C74.7173 24.3055 74.3972 24.254 74.0771 24.2712H72.7767V29.0542Z" fill="white"/>
<path d="M78.6521 27.4783C78.6194 27.1476 78.6585 26.8139 78.767 26.4987C78.8755 26.1834 79.0509 25.8936 79.282 25.6477C79.5131 25.4019 79.7948 25.2055 80.109 25.071C80.4233 24.9366 80.7631 24.8672 81.1067 24.8672C81.4503 24.8672 81.7901 24.9366 82.1043 25.071C82.4186 25.2055 82.7003 25.4019 82.9314 25.6477C83.1625 25.8936 83.3379 26.1834 83.4464 26.4987C83.5548 26.8139 83.594 27.1476 83.5612 27.4783C83.5946 27.8093 83.5559 28.1435 83.4477 28.4592C83.3396 28.7749 83.1642 29.0653 82.9331 29.3116C82.7019 29.558 82.42 29.7548 82.1055 29.8895C81.7909 30.0242 81.4507 30.0938 81.1067 30.0938C80.7627 30.0938 80.4225 30.0242 80.1079 29.8895C79.7934 29.7548 79.5115 29.558 79.2803 29.3116C79.0491 29.0653 78.8738 28.7749 78.7656 28.4592C78.6574 28.1435 78.6188 27.8093 78.6521 27.4783ZM82.5047 27.4783C82.5047 26.3874 81.9978 25.7495 81.1084 25.7495C80.2155 25.7495 79.7132 26.3874 79.7132 27.4783C79.7132 28.5779 80.2155 29.2108 81.1084 29.2108C81.9979 29.2108 82.5047 28.5735 82.5047 27.4783H82.5047Z" fill="white"/>
<path d="M90.0867 29.9967H89.0211L87.9454 26.2904H87.8641L86.7929 29.9967H85.7375L84.3028 24.9644H85.3447L86.277 28.8043H86.3538L87.4239 24.9644H88.4093L89.4794 28.8043H89.5607L90.4886 24.9644H91.5158L90.0867 29.9967Z" fill="white"/>
<path d="M92.7222 24.9644H93.711V25.7638H93.7878C93.918 25.4767 94.1376 25.236 94.4161 25.0753C94.6945 24.9146 95.0178 24.8419 95.341 24.8673C95.5943 24.8488 95.8486 24.8858 96.0851 24.9753C96.3216 25.0648 96.5342 25.2046 96.7072 25.3844C96.8802 25.5641 97.0092 25.7792 97.0846 26.0137C97.1599 26.2482 97.1797 26.4961 97.1426 26.739V29.9967H96.1154V26.9884C96.1154 26.1797 95.7519 25.7775 94.9922 25.7775C94.8203 25.7697 94.6486 25.798 94.4891 25.8604C94.3295 25.9228 94.1857 26.0178 94.0677 26.139C93.9497 26.2601 93.8601 26.4045 93.8052 26.5622C93.7502 26.7199 93.7312 26.8873 93.7494 27.0528V29.9968H92.7222L92.7222 24.9644Z" fill="white"/>
<path d="M98.7798 23H99.807V29.9969H98.7798V23Z" fill="white"/>
<path d="M101.235 27.4784C101.202 27.1476 101.241 26.8139 101.35 26.4987C101.458 26.1834 101.634 25.8936 101.865 25.6477C102.096 25.4019 102.378 25.2055 102.692 25.071C103.006 24.9366 103.346 24.8672 103.69 24.8672C104.033 24.8672 104.373 24.9366 104.687 25.071C105.002 25.2055 105.283 25.4019 105.514 25.6477C105.745 25.8936 105.921 26.1834 106.029 26.4987C106.138 26.8139 106.177 27.1476 106.144 27.4784C106.178 27.8094 106.139 28.1436 106.031 28.4593C105.923 28.7751 105.747 29.0654 105.516 29.3117C105.285 29.5581 105.003 29.7549 104.688 29.8896C104.374 30.0243 104.034 30.0939 103.69 30.0939C103.346 30.0939 103.005 30.0243 102.691 29.8896C102.376 29.7549 102.094 29.5581 101.863 29.3117C101.632 29.0654 101.457 28.7751 101.348 28.4593C101.24 28.1436 101.201 27.8094 101.235 27.4784ZM105.087 27.4784C105.087 26.3875 104.58 25.7496 103.691 25.7496C102.798 25.7496 102.296 26.3875 102.296 27.4784C102.296 28.5779 102.798 29.2109 103.691 29.2109C104.58 29.2109 105.087 28.5736 105.087 27.4784H105.087Z" fill="white"/>
<path d="M107.226 28.5735C107.226 27.6677 107.923 27.1454 109.161 27.0712L110.571 26.9927V26.5583C110.571 26.0268 110.208 25.7266 109.506 25.7266C108.932 25.7266 108.535 25.9302 108.421 26.286H107.426C107.531 25.4216 108.372 24.8672 109.553 24.8672C110.858 24.8672 111.594 25.4953 111.594 26.5583V29.9967H110.605V29.2895H110.524C110.359 29.5432 110.127 29.75 109.853 29.8888C109.578 30.0276 109.27 30.0934 108.961 30.0796C108.742 30.1016 108.521 30.079 108.312 30.0134C108.103 29.9478 107.911 29.8406 107.747 29.6987C107.584 29.5568 107.453 29.3834 107.363 29.1896C107.273 28.9958 107.226 28.7859 107.226 28.5735ZM110.571 28.1435V27.7228L109.3 27.8014C108.584 27.8477 108.258 28.0835 108.258 28.5271C108.258 28.98 108.665 29.2436 109.224 29.2436C109.387 29.2596 109.553 29.2437 109.71 29.1966C109.867 29.1496 110.013 29.0724 110.139 28.9698C110.264 28.8672 110.367 28.7411 110.442 28.5992C110.516 28.4572 110.56 28.3023 110.571 28.1435Z" fill="white"/>
<path d="M112.944 27.4785C112.944 25.8884 113.79 24.881 115.105 24.881C115.43 24.8665 115.753 24.9419 116.036 25.0982C116.318 25.2545 116.549 25.4854 116.701 25.7639H116.778V23H117.805V29.9969H116.821V29.2018H116.739C116.576 29.4784 116.337 29.7064 116.049 29.8612C115.761 30.0159 115.434 30.0915 115.105 30.0798C113.781 30.0798 112.944 29.0725 112.944 27.4785ZM114.005 27.4785C114.005 28.5459 114.526 29.1882 115.396 29.1882C116.262 29.1882 116.797 28.5366 116.797 27.4829C116.797 26.4341 116.256 25.7732 115.396 25.7732C114.531 25.7732 114.005 26.4199 114.005 27.4785H114.005Z" fill="white"/>
<path d="M122.055 27.4783C122.022 27.1476 122.061 26.8139 122.169 26.4987C122.278 26.1834 122.453 25.8936 122.684 25.6477C122.916 25.4019 123.197 25.2055 123.511 25.071C123.826 24.9366 124.166 24.8672 124.509 24.8672C124.853 24.8672 125.193 24.9366 125.507 25.071C125.821 25.2055 126.103 25.4019 126.334 25.6477C126.565 25.8936 126.74 26.1834 126.849 26.4987C126.957 26.8139 126.996 27.1476 126.964 27.4783C126.997 27.8093 126.958 28.1435 126.85 28.4592C126.742 28.7749 126.567 29.0653 126.336 29.3116C126.104 29.558 125.822 29.7548 125.508 29.8895C125.193 30.0242 124.853 30.0938 124.509 30.0938C124.165 30.0938 123.825 30.0242 123.51 29.8895C123.196 29.7548 122.914 29.558 122.683 29.3116C122.452 29.0653 122.276 28.7749 122.168 28.4592C122.06 28.1435 122.021 27.8093 122.055 27.4783ZM125.907 27.4783C125.907 26.3874 125.4 25.7495 124.511 25.7495C123.618 25.7495 123.116 26.3874 123.116 27.4783C123.116 28.5779 123.618 29.2108 124.511 29.2108C125.4 29.2108 125.907 28.5735 125.907 27.4783Z" fill="white"/>
<path d="M128.342 24.9644H129.331V25.7638H129.408C129.538 25.4767 129.758 25.236 130.036 25.0753C130.314 24.9146 130.638 24.8419 130.961 24.8673C131.214 24.8488 131.469 24.8858 131.705 24.9753C131.942 25.0648 132.154 25.2046 132.327 25.3844C132.5 25.5641 132.629 25.7792 132.705 26.0137C132.78 26.2482 132.8 26.4961 132.763 26.739V29.9967H131.735V26.9884C131.735 26.1797 131.372 25.7775 130.612 25.7775C130.44 25.7697 130.269 25.798 130.109 25.8604C129.949 25.9228 129.806 26.0178 129.688 26.139C129.57 26.2601 129.48 26.4045 129.425 26.5622C129.37 26.7199 129.351 26.8873 129.369 27.0528V29.9968H128.342V24.9644Z" fill="white"/>
<path d="M138.566 23.7114V24.9873H139.694V25.8238H138.566V28.4115C138.566 28.9386 138.791 29.1694 139.302 29.1694C139.433 29.169 139.564 29.1614 139.694 29.1465V29.9738C139.509 30.0057 139.322 30.0227 139.135 30.0245C137.993 30.0245 137.538 29.636 137.538 28.6658V25.8238H136.711V24.9872H137.538V23.7114H138.566Z" fill="white"/>
<path d="M141.098 23H142.116V25.7732H142.197C142.334 25.4834 142.559 25.2413 142.843 25.08C143.127 24.9187 143.456 24.846 143.784 24.8717C144.036 24.8585 144.288 24.8991 144.522 24.9908C144.756 25.0825 144.966 25.223 145.137 25.4022C145.308 25.5813 145.436 25.7949 145.512 26.0275C145.588 26.2601 145.61 26.506 145.577 26.7478V29.9969H144.548V26.9928C144.548 26.189 144.161 25.7819 143.435 25.7819C143.259 25.7679 143.081 25.7914 142.915 25.8507C142.749 25.91 142.598 26.0037 142.473 26.1252C142.348 26.2467 142.253 26.3931 142.192 26.5542C142.132 26.7153 142.109 26.8872 142.125 27.0578V29.9968H141.098L141.098 23Z" fill="white"/>
<path d="M151.566 28.638C151.427 29.0979 151.124 29.4958 150.712 29.7619C150.3 30.0281 149.804 30.1456 149.311 30.0939C148.968 30.1026 148.627 30.0391 148.312 29.9078C147.997 29.7765 147.715 29.5804 147.487 29.3333C147.258 29.0861 147.088 28.7938 146.987 28.4766C146.887 28.1594 146.86 27.825 146.906 27.4964C146.861 27.1669 146.889 26.8317 146.989 26.5135C147.089 26.1954 147.258 25.9017 147.486 25.6524C147.713 25.4031 147.994 25.204 148.308 25.0685C148.622 24.9331 148.962 24.8644 149.306 24.8673C150.754 24.8673 151.628 25.8239 151.628 27.4042V27.7507H147.953V27.8064C147.937 27.991 147.961 28.1769 148.023 28.3521C148.086 28.5273 148.186 28.6879 148.316 28.8236C148.447 28.9594 148.605 29.0672 148.781 29.1403C148.957 29.2134 149.147 29.2501 149.339 29.248C149.585 29.2766 149.834 29.2338 150.054 29.1252C150.275 29.0165 150.457 28.8469 150.577 28.638L151.566 28.638ZM147.953 27.0162H150.582C150.595 26.8473 150.571 26.6777 150.512 26.5182C150.453 26.3587 150.36 26.2128 150.24 26.0901C150.119 25.9673 149.973 25.8703 149.811 25.8053C149.65 25.7403 149.476 25.7087 149.301 25.7126C149.123 25.7104 148.947 25.7426 148.782 25.8074C148.617 25.8722 148.468 25.9681 148.342 26.0896C148.217 26.2111 148.118 26.3557 148.051 26.5148C147.984 26.674 147.951 26.8444 147.953 27.0162H147.953Z" fill="white"/>
</g>
<defs>
<filter id="filter0_d_1_513" x="6.10352e-05" y="0" width="199.029" height="104" filterUnits="userSpaceOnUse" color-interpolation-filters="sRGB">
<feFlood flood-opacity="0" result="BackgroundImageFix"/>
<feColorMatrix in="SourceAlpha" type="matrix" values="0 0 0 0 0 0 0 0 0 0 0 0 0 0 0 0 0 0 127 0" result="hardAlpha"/>
<feOffset dy="15"/>
<feGaussianBlur stdDeviation="15"/>
<feComposite in2="hardAlpha" operator="out"/>
<feColorMatrix type="matrix" values="0 0 0 0 0.862745 0 0 0 0 0.909647 0 0 0 0 0.952941 0 0 0 0.25 0"/>
<feBlend mode="normal" in2="BackgroundImageFix" result="effect1_dropShadow_1_513"/>
<feBlend mode="normal" in="SourceGraphic" in2="effect1_dropShadow_1_513" result="shape"/>
</filter>
</defs>
</svg>
