<svg width="72" height="97" viewBox="0 0 72 97" fill="none" xmlns="http://www.w3.org/2000/svg">
<path opacity="0.1" d="M35.9545 96.2727C29.1667 96.2727 23.1212 95.1061 17.8182 92.7727C12.5455 90.4091 8.37879 87.1667 5.31818 83.0455C2.28788 78.8939 0.727273 74.1061 0.636364 68.6818L20.4545 68.6818C20.5758 70.9545 21.3182 72.9545 22.6818 74.6818C24.0758 76.3788 25.9242 77.697 28.2273 78.6364C30.5303 79.5758 33.1212 80.0455 36 80.0455C39 80.0455 41.6515 79.5152 43.9545 78.4545C46.2576 77.3939 48.0606 75.9242 49.3636 74.0455C50.6667 72.1667 51.3182 70 51.3182 67.5455C51.3182 65.0606 50.6212 62.8636 49.2273 60.9545C47.8636 59.0151 45.8939 57.5 43.3182 56.4091C40.7727 55.3182 37.7424 54.7727 34.2273 54.7727L25.5455 54.7727L25.5455 40.3182L34.2273 40.3182C37.197 40.3182 39.8182 39.803 42.0909 38.7727C44.3939 37.7424 46.1818 36.3182 47.4545 34.5C48.7273 32.6515 49.3636 30.5 49.3636 28.0455C49.3636 25.7121 48.803 23.6667 47.6818 21.9091C46.5909 20.1212 45.0455 18.7273 43.0455 17.7273C41.0758 16.7273 38.7727 16.2273 36.1364 16.2273C33.4697 16.2273 31.0303 16.7121 28.8182 17.6818C26.6061 18.6212 24.8333 19.9697 23.5 21.7273C22.1667 23.4848 21.4545 25.5455 21.3636 27.9091L2.5 27.9091C2.59091 22.5455 4.12121 17.8182 7.09091 13.7273C10.0606 9.63636 14.0606 6.43939 19.0909 4.13636C24.1515 1.80303 29.8636 0.63636 36.2273 0.63636C42.6515 0.63636 48.2727 1.80303 53.0909 4.13636C57.9091 6.46969 61.6515 9.62121 64.3182 13.5909C67.0152 17.5303 68.3485 21.9545 68.3182 26.8636C68.3485 32.0758 66.7273 36.4242 63.4545 39.9091C60.2121 43.3939 55.9849 45.6061 50.7727 46.5455L50.7727 47.2727C57.6212 48.1515 62.8333 50.5303 66.4091 54.4091C70.0152 58.2576 71.803 63.0758 71.7727 68.8636C71.803 74.1667 70.2727 78.8788 67.1818 83C64.1212 87.1212 59.8939 90.3636 54.5 92.7273C49.1061 95.0909 42.9242 96.2727 35.9545 96.2727Z" fill="#00B9B6"/>
</svg>
