<svg width="68" height="95" viewBox="0 0 68 95" fill="none" xmlns="http://www.w3.org/2000/svg">
<path opacity="0.1" d="M1.54546 95L1.54546 80.8182L34.6818 50.1364C37.5 47.4091 39.8636 44.9545 41.7727 42.7727C43.7121 40.5909 45.1818 38.4545 46.1818 36.3636C47.1818 34.2424 47.6818 31.9545 47.6818 29.5C47.6818 26.7727 47.0606 24.4242 45.8182 22.4545C44.5758 20.4545 42.8788 18.9242 40.7273 17.8636C38.5758 16.7727 36.1364 16.2273 33.4091 16.2273C30.5606 16.2273 28.0758 16.803 25.9545 17.9545C23.8333 19.1061 22.197 20.7576 21.0455 22.9091C19.8939 25.0606 19.3182 27.6212 19.3182 30.5909L0.636364 30.5909C0.636364 24.5 2.01515 19.2121 4.77273 14.7273C7.5303 10.2424 11.3939 6.77273 16.3636 4.31818C21.3333 1.86363 27.0606 0.63636 33.5455 0.63636C40.2121 0.63636 46.0152 1.81818 50.9545 4.18182C55.9242 6.51515 59.7879 9.75757 62.5455 13.9091C65.303 18.0606 66.6818 22.8182 66.6818 28.1818C66.6818 31.697 65.9849 35.1667 64.5909 38.5909C63.2273 42.0152 60.7879 45.8182 57.2727 50C53.7576 54.1515 48.803 59.1364 42.4091 64.9545L28.8182 78.2727L28.8182 78.9091L67.9091 78.9091L67.9091 95L1.54546 95Z" fill="#00B9B6"/>
</svg>
